<svg xmlns="http://www.w3.org/2000/svg" viewBox="0 0 100 100" role="img" aria-label="Kamon của Gen"><g fill="currentColor"><path class="ring" fill-rule="evenodd" d="M91.5 23A49.5 49.5 0 0 1 94.1 27.5L86.2 31.6A40.6 40.6 0 0 0 84.1 27.9ZM92.4 29.2A47.2 47.2 0 0 1 53.2 97.1L52.9 92.7A42.8 42.8 0 0 0 88.4 31.2ZM52.6 99.4A49.5 49.5 0 0 1 47.4 99.4L47.9 90.5A40.6 40.6 0 0 0 52.1 90.5ZM46.8 97.1A47.2 47.2 0 0 1 7.6 29.2L11.6 31.2A42.8 42.8 0 0 0 47.1 92.7ZM5.9 27.5A49.5 49.5 0 0 1 8.5 23L15.9 27.9A40.6 40.6 0 0 0 13.8 31.6ZM10.8 23.7A47.2 47.2 0 0 1 89.2 23.7L85.5 26.1A42.8 42.8 0 0 0 14.5 26.1Z"/><path class="leaf" style="--delay:0.75s" fill-rule="evenodd" d="M51.2 50L51.2 43Q57.5 28.5 74.9 19A34.6 34.6 0 0 0 54.2 8.7L50 14.6L45.8 8.7A34.6 34.6 0 0 0 25.1 19Q42.5 28.5 48.8 43L48.8 50ZM44.9 34.4L35 17.3L34.4 17.7L44.8 34.5ZM47.2 33.4L41.6 14.4L41 14.6L47 33.5ZM49.1 33L47.2 13.4L46.6 13.4L48.9 33.1ZM51.1 33.1L53.4 13.4L52.8 13.4L50.9 33ZM53 33.5L59 14.6L58.4 14.4L52.8 33.4ZM55.2 34.5L65.6 17.7L65 17.3L55.1 34.4Z"/><path class="leaf" style="--delay:0.91s" fill-rule="evenodd" d="M49.4 51L55.5 54.5Q64.9 67.2 64.4 87.1A34.6 34.6 0 0 0 83.7 74.3L80.6 67.7L87.9 67A34.6 34.6 0 0 0 89.3 44Q72.4 54.3 56.7 52.5L50.6 49ZM66.1 53.4L85.8 53.3L85.8 52.6L66.1 53.2ZM65.8 55.8L85 60.5L85.1 59.9L65.8 55.7ZM65.2 57.7L83.1 65.9L83.4 65.3L65.2 57.5ZM64.1 59.5L79.9 71.3L80.3 70.7L64.2 59.3ZM62.8 60.9L76.1 75.5L76.6 75L63 60.7ZM60.8 62.3L70.2 79.7L70.8 79.4L61 62.2Z"/><path class="leaf" style="--delay:1.07s" fill-rule="evenodd" d="M49.4 49L43.3 52.5Q27.6 54.3 10.7 44A34.6 34.6 0 0 0 12.1 67L19.4 67.7L16.3 74.3A34.6 34.6 0 0 0 35.6 87.1Q35.1 67.2 44.5 54.5L50.6 51ZM39 62.2L29.2 79.4L29.8 79.7L39.2 62.3ZM37 60.7L23.4 75L23.9 75.5L37.2 60.9ZM35.8 59.3L19.7 70.7L20.1 71.3L35.9 59.5ZM34.8 57.5L16.6 65.3L16.9 65.9L34.8 57.7ZM34.2 55.7L14.9 59.9L15 60.5L34.2 55.8ZM33.9 53.2L14.2 52.6L14.2 53.3L33.9 53.4Z"/></g></svg>
