<svg xmlns="http://www.w3.org/2000/svg" viewBox="0 0 120 80" aria-hidden="true" focusable="false"><ellipse class="w" cx="56" cy="69" rx="36" ry="4.500"/><g transform="rotate(-4 54 40)"><rect class="pp ln" x="35" y="14" width="46" height="55" rx="3"/><rect class="pp ln" x="32" y="10" width="46" height="55" rx="3"/><path class="ln-g" d="M39 15V60M35.500 19H42.500M35.500 31H42.500M35.500 43H42.500M35.500 55H42.500"/><rect class="t ln" x="49" y="17" width="11" height="34" rx="2.500"/><path class="ln thin" d="M53 24Q52 31 53 39M56.500 25Q55.500 32 56.500 42"/><path class="ln-g" d="M56 65Q55 71 61 73Q66 74 63 69"/></g><path class="y" d="M95 56Q86 51 87 42Q93 45 97 43Q101 45 107 42Q108 51 99 56Q97 57 95 56Z"/><path class="ln" d="M97 57Q97 61 95 66M97 46L97 52"/></svg>
