<svg xmlns="http://www.w3.org/2000/svg" viewBox="0 0 120 80" aria-hidden="true" focusable="false"><ellipse class="w" cx="60" cy="68" rx="42" ry="4.500"/><path class="pp ln" d="M25 25Q60 21 95 25L95 57Q60 61 25 57Z"/><rect class="t ln" x="17" y="20" width="11" height="42" rx="5.500"/><rect class="t ln" x="92" y="20" width="11" height="42" rx="5.500"/><path class="g" d="M17.300 34L27.700 34L27.700 39L17.300 39Z"/><path class="ln thin" d="M36 32Q42 29 49 32M55 32Q62 29 68 32M74 32Q79 30 85 32M36 40Q45 37 53 40Q58 43 66 40M36 48Q41 46 47 48"/><g transform="translate(58 71) rotate(-38)"><path class="ink" d="M0 0Q6 -2.400 13 -2.400L13 2.400Q6 2.400 0 0Z"/><rect class="pp ln" x="13" y="-2.400" width="34" height="4.800" rx="2.400"/><rect class="y" x="13" y="-2.400" width="3.500" height="4.800"/></g></svg>
