<svg xmlns="http://www.w3.org/2000/svg" viewBox="0 0 120 80" aria-hidden="true" focusable="false"><ellipse class="w" cx="58" cy="70" rx="46" ry="3.500"/><path class="ln" d="M8 14L114 14"/><circle class="y" cx="8" cy="14" r="2.200"/><circle class="y" cx="114" cy="14" r="2.200"/><path class="g ln" d="M14 15L39 15L39 55Q26.500 58 14 55Z"/><path class="g ln" d="M40 15L65 15L65 57Q52.500 60 40 57Z"/><path class="g ln" d="M66 15L91 15L91 55Q78.500 58 66 55Z"/><path class="ln-pp" d="M14 22L39 22M40 22L65 22M66 22L91 22"/><circle class="pp ln" cx="52.500" cy="37" r="8"/><circle class="y" cx="52.500" cy="37" r="3.200"/><path class="ln thin" d="M102 14L102 22"/><ellipse class="y ln" cx="102" cy="36" rx="8" ry="12"/><path class="ln thin" d="M94.300 31Q102 34 109.700 31M94 37Q102 40 110 37M94.300 43Q102 46 109.700 43"/><rect class="ink" x="97" y="21" width="10" height="3.500" rx="1.200"/><rect class="ink" x="97" y="47.500" width="10" height="3.500" rx="1.200"/><path class="ln thin" d="M102 51L102 58"/><path class="ln" d="M6 68Q58 73 112 68"/></svg>
